<svg width="24" height="24" viewBox="0 0 24 24" fill="none" xmlns="http://www.w3.org/2000/svg">
<rect width="24" height="24" fill="white"/>
<path fill-rule="evenodd" clip-rule="evenodd" d="M19.471 17.408L16.654 14.584C16.629 14.559 16.596 14.549 16.568 14.527C17.4337 13.3895 17.9023 11.9994 17.902 10.57C17.9015 8.82734 17.2088 7.15624 15.9764 5.92419C14.744 4.69213 13.0727 4 11.33 4C10.4603 3.98927 9.59718 4.1513 8.7906 4.47668C7.98403 4.80207 7.25007 5.28434 6.63129 5.89553C6.01251 6.50672 5.52122 7.23467 5.18591 8.03718C4.8506 8.83968 4.67794 9.70076 4.67794 10.5705C4.67794 11.4402 4.8506 12.3013 5.18591 13.1038C5.52122 13.9063 6.01251 14.6343 6.63129 15.2455C7.25007 15.8567 7.98403 16.3389 8.7906 16.6643C9.59718 16.9897 10.4603 17.1517 11.33 17.141C12.82 17.141 14.19 16.639 15.293 15.803C15.316 15.831 15.326 15.865 15.353 15.891L18.171 18.714C18.543 19.087 19.135 19.096 19.494 18.735C19.854 18.375 19.844 17.78 19.472 17.408H19.471ZM11.315 15.242C10.388 15.242 9.48173 14.9671 8.71094 14.452C7.94014 13.937 7.3394 13.2049 6.98468 12.3484C6.62996 11.4919 6.5372 10.5495 6.71813 9.64024C6.89906 8.73103 7.34556 7.89589 8.00114 7.24044C8.65673 6.58499 9.49197 6.13867 10.4012 5.95794C11.3105 5.7772 12.2529 5.87016 13.1093 6.22506C13.9658 6.57997 14.6977 7.18087 15.2126 7.95177C15.7275 8.72267 16.0022 9.62896 16.002 10.556C16.002 11.1715 15.8808 11.7809 15.6452 12.3495C15.4096 12.9181 15.0644 13.4347 14.6291 13.8699C14.1939 14.305 13.6772 14.6502 13.1086 14.8856C12.5399 15.121 11.9305 15.2421 11.315 15.242V15.242Z" fill="#000B15"/>
</svg>
