<svg width="317" height="73" viewBox="0 0 317 73" fill="none" xmlns="http://www.w3.org/2000/svg">
<path fill-rule="evenodd" clip-rule="evenodd" d="M42 14.105C41.737 12.86 39.614 10 37.235 10C36.702 10 36.351 10.09 36 10.183C38.293 11.076 40.057 13.388 40.59 15L41.911 14.197V14.105H42V14.105ZM57 68.296L48.429 62.493C47.398 61.795 46.199 60.476 46.199 58.015V37L45.341 37.53L45 37.706V58.627C45 60.387 45.94 62.232 47.223 63.111L55.886 69L57 68.296ZM19.976 47.216C20.144 43.651 19.39 39.302 18.63 35.126C17.87 30.866 17.191 26.516 17.277 22.695C17.363 20.349 17.785 18.088 18.712 16C17.11 18.52 16.1 21.388 16.013 24.433C15.761 31.825 19.219 41.473 18.879 48.957C18.8094 49.9724 18.7264 50.9868 18.63 52L18.796 51.824C19.473 50.866 19.894 49.391 19.976 47.216V47.216ZM32 68.17C30.714 65.58 27.632 64 24.03 64C23.684 64.08 23.341 64.08 23 64.08C26.516 64.667 29.514 66.582 30.631 69L32 68.17ZM63 37.25L60 34L60.091 36.165L61.674 38L63 37.25ZM145.192 19L138 14.723L139.08 14L146 18.093C145.73 18.364 145.46 18.635 145.192 19ZM146.902 69L143.95 66.918C142.01 65.533 141 63.193 141 60.595V31.661C141 27.676 141.845 24.903 143.191 23C142.433 24.903 142.095 27.243 142.095 29.93L142.178 59.553C142.178 62.759 143.108 64.839 145.301 66.398L148 68.308L146.902 69ZM123 68.736C123 68.736 122.722 68.911 122.538 69H121.798V20.634C121.798 18.295 121.613 18.295 120.132 17.252L118 15.692L119.393 15C120.503 15.864 122.171 17.08 122.171 17.168C122.819 17.773 123 18.118 123 19.506V68.821V68.736ZM87.647 9C86.909 10.93 87.001 12.774 87.925 14.285C88.761 15.625 90.238 16.549 92 16.97C86.539 17.387 84.137 13.447 87.647 9V9ZM100.502 51C100.857 49.621 101.002 48.07 101.002 46.435V21.38C101.002 18.368 100.857 18.027 100 17.08H100.145C101.357 16.82 102 17.08 102 19.659V44.8C102 47.728 101.574 49.622 100.502 51.001V51ZM102.65 69.001C101.935 66.635 99.774 64.634 96 64.087C96.543 64 97.08 64 97.622 64C102.29 64.086 103.64 66.996 103.911 67.907L104 68.177L102.65 69.001ZM231 68.386L228.425 66.813C226.102 65.409 224.898 63.227 224.898 59.902V36.199C224.898 34.801 224.815 34.889 224.295 34.45C224.295 34.45 222.491 32.962 221.287 32L220 32.705L222.49 34.625C223.868 35.672 223.697 35.76 223.697 37.861V60.862C223.697 64.011 224.985 66.197 226.789 67.252L229.883 69L231 68.386ZM207 68.82V33.306L205.656 32L204 32.787L205.55 34.269V69H206.385C206.589 68.91 206.899 68.82 206.899 68.82H207ZM179 68.385L169.002 62.298C167 61.065 166.222 59.568 166.222 56.922V37L165.352 37.441L165 37.616V57.892C165 60.273 166.042 62.032 167.871 63.095L177.866 69L179 68.385ZM184 57V37.245C184 36.205 183.67 35.855 182.916 35.425L179 33V34.3L181.25 35.597C182.916 36.549 182.916 36.724 182.916 38.547L182.836 56.307L184 57ZM263 21.322V21.067C263 18.683 261.622 16.217 259.508 14.937C258.698 14.425 257.972 14 257.972 14L257 14.683L257.564 15.019C260.32 16.642 261.869 18.683 261.869 22L263 21.322ZM295 68.296L286.406 62.493C285.388 61.795 284.194 60.476 284.194 58.015V37L283.342 37.53L283 37.706V58.36C283 60.648 283.855 62.232 285.298 63.2L293.806 69L295 68.296ZM258 69.293L248.82 63.286C246.618 61.878 246.19 60.55 246.19 57.984V39L245.509 39.356L245 39.618V58.428C245 61.436 245.936 62.761 247.379 63.73L256.892 70L258 69.293ZM300 37.249L297 34L297.089 36.165L298.674 38L300 37.249ZM265 58V30L263 30.798V57.202L265 58Z" fill="#8F98A9"/>
<path fill-rule="evenodd" clip-rule="evenodd" d="M44.192 60.691L43.15 58.6L40.454 60.338C38.453 57.897 35.227 55.025 27.564 55.025C19.462 54.939 9.529 61.38 5 66.955L5.785 68C11.966 63.905 18.329 62.082 23.904 62.082C28.434 62.082 32.178 64.258 33.744 67.478L44.192 60.691ZM52.56 12.964C50.99 10.526 46.81 5.99999 38.534 5.99999C28.607 5.91499 19.9 13.663 19.55 23.069C19.286 30.558 22.859 40.223 22.508 47.712C22.337 50.239 21.81 52.067 20.769 53.457L21.81 54.68L27.91 50.24C30.874 48.055 32.527 45.359 32.439 40.66C32.352 34.824 29.65 25.855 29.65 18.978C29.65 13.054 31.917 8.61299 37.056 8.61299C40.541 8.61299 43.328 12.183 43.761 14.186C43.939 15.141 43.761 15.578 42.891 16.187L40.454 17.847V20.543L52.561 12.963L52.56 12.964ZM75 36.13L63.328 23.242L45.12 33.863V36.301L48.867 34.215V58.337C48.867 59.727 49.391 60.599 50.26 61.211L59.93 67.478L73.608 59.551L72.475 57.113L65.331 60.945L58.887 56.502C58.102 55.984 58.015 55.46 58.015 54.327V46.49L75 36.13ZM65.853 38.046L58.015 42.921V30.206L58.712 29.773L65.853 38.046ZM105.42 67.736C104.544 65.282 102.009 62.748 97.456 62.574C93.164 62.486 87.038 64.151 81.966 68L81 66.773C84.678 62.748 93.255 56.278 102.266 56.187C106.996 56.187 110.32 57.764 112.683 60.3L116.624 58.112L117.762 60.389L105.42 67.736ZM159.417 14.111C155.998 16.121 154.86 18.837 154.86 23.036V56.535C154.86 58.64 155.126 59.597 156.262 60.213L157.401 60.828L160.551 58.984L161.603 61.09L150.661 67.652L146.901 65.111C145.232 63.975 144.53 62.574 144.53 59.861V29.945C144.53 24.349 146.286 21.37 148.736 19.537L150.136 18.487L139.81 12.448L135.171 15.245V58.811C135.171 62.485 134.646 63.011 131.403 64.671C131.403 64.671 128.872 65.898 125.377 67.735H124.674V19.45C124.674 17.09 124.408 16.561 123.095 15.513L119.423 12.54L114.958 15.074V40.096C114.958 44.466 114.258 47.616 110.758 49.801L102.008 55.313L101.128 53.828C103.844 51.725 104.455 48.748 104.455 45.251V19.71C104.455 15.948 103.935 14.462 99.992 15.162C98.506 15.422 96.23 15.773 94.83 15.948C89.052 16.737 86.6 12.624 90.54 7.46399C90.54 7.46399 91.504 6.15099 93.953 2.99899L95.883 4.31499L94.478 6.32599C92.642 8.95499 94.129 10.354 97.108 9.29999C98.506 8.77399 101.218 7.72799 103.143 6.93599C111.454 3.70299 114.52 9.03899 114.958 12.188L125.287 5.97799L134.207 12.798L145.232 5.97799L153.724 10.791C156.61 12.448 158.011 11.749 160.025 10.698L161.689 9.82499L163 12.014L159.417 14.111V14.111ZM198.879 56.346L198.095 54.441L195.052 55.997V32.527C195.052 31.32 194.62 30.364 193.402 29.667L182.18 23L164 33.565V36.079L167.744 33.914V56.865C167.744 58.941 168.26 59.724 169.571 60.502L180.615 67L198.879 56.346ZM242 61.283L241.131 59.29L237.91 61.113L236.785 60.417C235.567 59.724 235.304 58.854 235.304 56.777V31.922C235.304 29.928 234.87 29.066 233.649 28.198L226.951 23.173L216.601 29.066L211.124 23.173L200.164 29.845L201.644 31.573L205.382 29.327L208.078 32.356V66.83H208.774C213.124 64.917 214.515 64.314 214.515 64.314C216.602 63.446 217.213 62.754 217.213 60.332V31.572L220.782 29.496L224.956 32.789C226.083 33.739 226.256 34.519 226.256 35.989L226.344 59.551C226.344 62.146 227.128 63.62 228.864 64.66L232.521 66.83L242 61.283ZM185.918 59.986L185.399 60.073L178.263 55.913C177.05 55.22 176.783 54.441 176.783 52.879L176.875 30.102L177.393 29.927L184.267 33.914C185.655 34.694 185.918 35.387 185.918 36.857V59.986V59.986ZM266.125 60.908L265.601 60.996L259.402 56.962C258.184 56.177 257.747 55.562 257.747 53.991V31.66L265.513 26.925L266.125 27.277V60.907V60.908ZM279.043 57.317L278.26 55.302L275.115 56.962V19.837C275.115 14.408 272.673 10.908 268.658 8.45399L264.731 5.99999L252.419 13.179L254.863 14.32L258.883 12.132L261.496 13.619C264.291 15.196 266.125 18.352 266.125 21.589V22.987L245 35.246V37.613L248.578 35.686V57.93C248.578 59.852 249.101 60.644 250.323 61.431L260.798 68L279.043 57.317ZM313 36.475L301.213 23.515L282.97 34.195V36.647L286.723 34.549V58.807C286.723 60.205 287.247 61.082 288.119 61.697L297.811 68L311.513 60.028L310.47 57.577L303.31 61.431L296.849 56.961C295.974 56.351 295.889 55.914 295.889 54.776V46.894L313 36.475ZM303.747 38.402L295.89 43.305V30.518L296.677 30.082L303.747 38.402Z" fill="#1A171B"/>
</svg>
