<?xml version="1.0" encoding="UTF-8"?>
<svg width="9px" height="9px" viewBox="0 0 9 9" version="1.1" xmlns="http://www.w3.org/2000/svg" xmlns:xlink="http://www.w3.org/1999/xlink">
    <title>Artboard</title>
    <g id="Artboard" stroke="none" stroke-width="1" fill="none" fill-rule="evenodd">
        <path d="M4.76710674,0.163663241 C4.65666606,0.0312293321 4.48086747,-0.0274197895 4.31303446,0.012177721 C4.14520144,0.0517752315 4.01415782,0.182818856 3.9745603,0.350651872 C3.93496279,0.518484887 3.99361192,0.694283475 4.12604582,0.804724155 L7.39673861,4.0792633 L0.43225284,4.0792633 C0.189908654,4.09212107 2.16715534e-13,4.29237258 2.16715534e-13,4.53505761 C2.16715534e-13,4.77774265 0.189908654,4.97799416 0.43225284,4.99085192 L7.39673861,4.99085192 L4.12091734,8.2615447 C3.9496414,8.44091109 3.9496414,8.72323923 4.12091734,8.90260562 C4.2058347,8.98778985 4.32116765,9.03566836 4.44144779,9.03566836 C4.56172794,9.03566836 4.67706089,8.98778985 4.76197825,8.90260562 L8.81348323,4.85110064 C8.9006132,4.7672318 8.949846,4.6515066 8.949846,4.53057019 C8.949846,4.40963378 8.9006132,4.29390857 8.81348323,4.21003973 L4.76710674,0.163663241 Z" id="Path" fill="#FFFFFF" fill-rule="nonzero"></path>
    </g>
</svg>