<?xml version="1.0" encoding="UTF-8"?>
<svg width="145px" height="20px" viewBox="0 0 145 20" version="1.1" xmlns="http://www.w3.org/2000/svg" xmlns:xlink="http://www.w3.org/1999/xlink">
    <title>Artboard</title>
    <defs>
        <rect id="path-1" x="0" y="-4.2607261e-23" width="148" height="18.975"></rect>
        <rect id="path-3" x="0" y="2.22044605e-16" width="148" height="18.975"></rect>
    </defs>
    <g id="Artboard" stroke="none" stroke-width="1" fill="none" fill-rule="evenodd">
        <g id="marqueur" transform="translate(-5.000000, -7.000000)">
            <g id="PROJETPEGASUS-Clipped" transform="translate(0.000000, -0.000000)">
                <mask id="mask-2" fill="white">
                    <use xlink:href="#path-1"></use>
                </mask>
                <g id="path-1"></g>
                <path d="M7.13460001,26.06 L7.13460001,18.0905 L9.33570001,18.0905 C12.7259,18.0905 14.2692,16.1677 14.2692,13.0305 C14.2692,9.74149999 13.0042,7.94519999 9.53810001,7.94519999 L5.41420001,7.94519999 L5.41420001,26.06 L7.13460001,26.06 Z M9.31040001,16.4966 L7.13460001,16.4966 L7.13460001,9.53909999 L9.31040001,9.53909999 C11.7139,9.53909999 12.4476,10.8294 12.4476,13.0558 C12.4476,15.2316 11.7139,16.4966 9.31040001,16.4966 Z M17.9883,26.06 L17.9883,17.9387 L19.9364,17.9387 C21.0749,17.9387 21.2773,18.4194 21.5556,19.7097 C21.8086,20.8229 22.1122,22.2903 22.3652,23.53 C22.5423,24.5926 22.8459,25.5034 23.1748,26.06 L25.1229,26.06 L25.1229,25.7311 C24.5663,25.0733 24.2374,24.289 23.7567,21.6578 C23.3013,19.1784 22.9724,18.1664 22.0363,17.5339 L22.0363,17.3315 C23.9591,16.7496 25.1482,15.2063 25.1482,12.7522 C25.1482,9.56439999 23.782,7.94519999 20.3412,7.94519999 L16.2679,7.94519999 L16.2679,26.06 L17.9883,26.06 Z M19.8858,16.3448 L17.9883,16.3448 L17.9883,9.53909999 L20.2147,9.53909999 C22.4158,9.53909999 23.3519,10.4499 23.3519,12.904 C23.3519,15.2063 22.264,16.3448 19.8858,16.3448 Z M32.5105,26.4648 C35.673,26.4648 38.0512,23.7071 38.0512,17.7616 L38.0512,16.2436 C38.0512,10.374 35.9007,7.54039999 32.5105,7.54039999 C29.2974,7.54039999 26.9698,10.374 26.9698,16.2436 L26.9698,17.7616 C26.9698,23.7324 29.2468,26.4648 32.5105,26.4648 Z M32.5105,24.8456 C30.5877,24.8456 28.7408,23.2517 28.7408,17.7616 L28.7408,16.2436 C28.7408,10.7788 30.613,9.15959999 32.5105,9.15959999 C34.408,9.15959999 36.2802,10.7788 36.2802,16.2436 L36.2802,17.7616 C36.2802,23.2517 34.4333,24.8456 32.5105,24.8456 Z M41.7956,25.7817 C42.8329,25.3769 43.4907,24.6179 43.4907,22.7963 L43.4907,7.94519999 L41.7703,7.94519999 L41.7703,22.4168 C41.7703,23.6565 41.5426,24.0107 41.0366,24.2384 C40.6571,24.4155 39.974,24.4661 39.215,24.4661 L39.215,26.06 C40.1511,26.06 41.1631,26.0347 41.7956,25.7817 Z M54.8757001,26.06 L54.8757001,24.4661 L48.3483,24.4661 L48.3483,17.7363 L53.2565001,17.7363 L53.2565001,16.1424 L48.3483,16.1424 L48.3483,9.53909999 L54.2685001,9.53909999 L54.2685001,7.94519999 L46.6279,7.94519999 L46.6279,26.06 L54.8757001,26.06 Z M61.4031001,26.06 L61.4031001,9.53909999 L65.3246001,9.53909999 L65.3246001,7.94519999 L55.7612001,7.94519999 L55.7612001,9.53909999 L59.6827001,9.53909999 L59.6827001,26.06 L61.4031001,26.06 Z M73.0158001,26.06 L73.0158001,18.0905 L75.2169001,18.0905 C78.6071001,18.0905 80.1504001,16.1677 80.1504001,13.0305 C80.1504001,9.74149999 78.8854001,7.94519999 75.4193001,7.94519999 L71.2954001,7.94519999 L71.2954001,26.06 L73.0158001,26.06 Z M75.1916001,16.4966 L73.0158001,16.4966 L73.0158001,9.53909999 L75.1916001,9.53909999 C77.5951001,9.53909999 78.3288001,10.8294 78.3288001,13.0558 C78.3288001,15.2316 77.5951001,16.4966 75.1916001,16.4966 Z M90.3969001,26.06 L90.3969001,24.4661 L83.8695001,24.4661 L83.8695001,17.7363 L88.7777001,17.7363 L88.7777001,16.1424 L83.8695001,16.1424 L83.8695001,9.53909999 L89.7897001,9.53909999 L89.7897001,7.94519999 L82.1491001,7.94519999 L82.1491001,26.06 L90.3969001,26.06 Z M97.2785001,26.4648 C98.8724001,26.4648 100.3398,25.4528 101.0482,23.4541 L101.1241,23.4541 L101.3518,26.06 L102.3891,26.06 L102.3891,16.8508 L97.9616001,16.8508 L97.9616001,18.4447 L100.7446,18.4447 L100.7446,20.2157 C100.7446,23.0493 99.2772001,24.8962 97.4556001,24.8962 C95.5328001,24.8962 93.7112001,23.1758 93.7112001,17.7616 L93.7112001,16.193 C93.7112001,10.5258 95.7099001,9.10899999 97.4303001,9.10899999 C99.1507001,9.10899999 100.2386,10.627 100.5928,13.3088 L102.3891,12.8787 C101.8831,9.79209999 100.4157,7.54039999 97.5062001,7.54039999 C94.3690001,7.54039999 91.9402001,10.1969 91.9402001,16.0918 L91.9402001,17.8628 C91.9402001,23.7324 93.9642001,26.4648 97.2785001,26.4648 Z M105.6275,26.06 L106.6142,21.6831 L111.4971,21.6831 L112.4838,26.06 L114.3813,26.06 L110.0803,7.79339999 L108.4105,7.79339999 L104.0083,26.06 L105.6275,26.06 Z M111.1682,20.1145 L106.9684,20.1145 L108.5117,13.3341 L109.043,10.7788 L109.1442,10.7788 L109.6502,13.3341 L111.1682,20.1145 Z M120.428,26.4648 C123.5399,26.4648 125.1844,24.1878 125.1844,21.5313 C125.1844,18.5459 123.6158,17.5845 120.7569,15.7629 C118.3787,14.2449 117.6197,13.5365 117.6197,11.7149 C117.6197,10.3234 118.5558,9.05839999 120.3268,9.05839999 C122.4773,9.05839999 123.1604,10.6017 123.5399,13.1064 L125.1844,12.7269 C124.7543,9.41259999 123.4893,7.54039999 120.3521,7.54039999 C117.6703,7.54039999 115.9246,9.51379999 115.9246,11.8161 C115.9246,14.5991 117.4932,15.8641 120.1244,17.4833 C122.6544,19.0266 123.4387,19.7856 123.4387,21.7084 C123.4387,23.53 122.3761,24.9468 120.5292,24.9468 C118.7582,24.9468 117.1643,23.6565 116.8607,20.1398 L115.1909,20.5699 C115.5704,24.3143 117.3667,26.4648 120.428,26.4648 Z M131.7371,26.4648 C134.7478,26.4648 136.2658,24.7191 136.2658,21.6578 L136.2658,7.94519999 L134.6719,7.94519999 L134.6719,21.4807 C134.6719,23.6565 133.9382,24.9215 131.7877,24.9215 C129.6878,24.9215 128.9288,23.6059 128.9288,21.3036 L128.9288,7.94519999 L127.2084,7.94519999 L127.2084,21.4554 C127.2084,24.6179 128.8023,26.4648 131.7371,26.4648 Z M143.198,26.4648 C146.3099,26.4648 147.9544,24.1878 147.9544,21.5313 C147.9544,18.5459 146.3858,17.5845 143.5269,15.7629 C141.1487,14.2449 140.3897,13.5365 140.3897,11.7149 C140.3897,10.3234 141.3258,9.05839999 143.0968,9.05839999 C145.2473,9.05839999 145.9304,10.6017 146.3099,13.1064 L147.9544,12.7269 C147.5243,9.41259999 146.2593,7.54039999 143.1221,7.54039999 C140.4403,7.54039999 138.6946,9.51379999 138.6946,11.8161 C138.6946,14.5991 140.2632,15.8641 142.8944,17.4833 C145.4244,19.0266 146.2087,19.7856 146.2087,21.7084 C146.2087,23.53 145.1461,24.9468 143.2992,24.9468 C141.5282,24.9468 139.9343,23.6565 139.6307,20.1398 L137.9609,20.5699 C138.3404,24.3143 140.1367,26.4648 143.198,26.4648 Z" id="PROJETPEGASUS" fill="#FFFFFF" fill-rule="nonzero" mask="url(#mask-2)"></path>
            </g>
            <g id="PROJETPEGASUS-Clipped" transform="translate(1.265000, 18.400000)">
                <mask id="mask-4" fill="white">
                    <use xlink:href="#path-3"></use>
                </mask>
                <g id="path-3"></g>
                <path d="M7.13460001,7.66000038 L7.13460001,-0.309499621 L9.33570001,-0.309499621 C12.7259,-0.309499621 14.2692,-2.23229963 14.2692,-5.36949963 C14.2692,-8.65849963 13.0042,-10.4547996 9.53810001,-10.4547996 L5.41420001,-10.4547996 L5.41420001,7.66000038 L7.13460001,7.66000038 Z M9.31040001,-1.90339963 L7.13460001,-1.90339963 L7.13460001,-8.86089963 L9.31040001,-8.86089963 C11.7139,-8.86089963 12.4476,-7.57059963 12.4476,-5.34419963 C12.4476,-3.16839963 11.7139,-1.90339963 9.31040001,-1.90339963 Z M17.9883,7.66000038 L17.9883,-0.461299622 L19.9364,-0.461299622 C21.0749,-0.461299622 21.2773,0.019400379 21.5556,1.30970038 C21.8086,2.42290038 22.1122,3.89030038 22.3652,5.13000038 C22.5423,6.19260038 22.8459,7.10340038 23.1748,7.66000038 L25.1229,7.66000038 L25.1229,7.33110038 C24.5663,6.67330038 24.2374,5.88900038 23.7567,3.25780038 C23.3013,0.778400383 22.9724,-0.233599621 22.0363,-0.866099622 L22.0363,-1.06849962 C23.9591,-1.65039963 25.1482,-3.19369963 25.1482,-5.64779963 C25.1482,-8.83559963 23.782,-10.4547996 20.3412,-10.4547996 L16.2679,-10.4547996 L16.2679,7.66000038 L17.9883,7.66000038 Z M19.8858,-2.05519963 L17.9883,-2.05519963 L17.9883,-8.86089963 L20.2147,-8.86089963 C22.4158,-8.86089963 23.3519,-7.95009963 23.3519,-5.49599963 C23.3519,-3.19369963 22.264,-2.05519963 19.8858,-2.05519963 Z M32.5105,8.06480038 C35.673,8.06480038 38.0512,5.30710038 38.0512,-0.638399622 L38.0512,-2.15639963 C38.0512,-8.02599963 35.9007,-10.8595997 32.5105,-10.8595997 C29.2974,-10.8595997 26.9698,-8.02599963 26.9698,-2.15639963 L26.9698,-0.638399622 C26.9698,5.33240038 29.2468,8.06480038 32.5105,8.06480038 Z M32.5105,6.44560038 C30.5877,6.44560038 28.7408,4.85170038 28.7408,-0.638399622 L28.7408,-2.15639963 C28.7408,-7.62119963 30.613,-9.24039963 32.5105,-9.24039963 C34.408,-9.24039963 36.2802,-7.62119963 36.2802,-2.15639963 L36.2802,-0.638399622 C36.2802,4.85170038 34.4333,6.44560038 32.5105,6.44560038 Z M41.7956,7.38170038 C42.8329,6.97690038 43.4907,6.21790038 43.4907,4.39630038 L43.4907,-10.4547996 L41.7703,-10.4547996 L41.7703,4.01680038 C41.7703,5.25650038 41.5426,5.61070038 41.0366,5.83840038 C40.6571,6.01550038 39.974,6.06610038 39.215,6.06610038 L39.215,7.66000038 C40.1511,7.66000038 41.1631,7.63470038 41.7956,7.38170038 Z M54.8757001,7.66000038 L54.8757001,6.06610038 L48.3483,6.06610038 L48.3483,-0.663699622 L53.2565001,-0.663699622 L53.2565001,-2.25759963 L48.3483,-2.25759963 L48.3483,-8.86089963 L54.2685001,-8.86089963 L54.2685001,-10.4547996 L46.6279,-10.4547996 L46.6279,7.66000038 L54.8757001,7.66000038 Z M61.4031001,7.66000038 L61.4031001,-8.86089963 L65.3246001,-8.86089963 L65.3246001,-10.4547996 L55.7612001,-10.4547996 L55.7612001,-8.86089963 L59.6827001,-8.86089963 L59.6827001,7.66000038 L61.4031001,7.66000038 Z M73.0158001,7.66000038 L73.0158001,-0.309499621 L75.2169001,-0.309499621 C78.6071001,-0.309499621 80.1504001,-2.23229963 80.1504001,-5.36949963 C80.1504001,-8.65849963 78.8854001,-10.4547996 75.4193001,-10.4547996 L71.2954001,-10.4547996 L71.2954001,7.66000038 L73.0158001,7.66000038 Z M75.1916001,-1.90339963 L73.0158001,-1.90339963 L73.0158001,-8.86089963 L75.1916001,-8.86089963 C77.5951001,-8.86089963 78.3288001,-7.57059963 78.3288001,-5.34419963 C78.3288001,-3.16839963 77.5951001,-1.90339963 75.1916001,-1.90339963 Z M90.3969001,7.66000038 L90.3969001,6.06610038 L83.8695001,6.06610038 L83.8695001,-0.663699622 L88.7777001,-0.663699622 L88.7777001,-2.25759963 L83.8695001,-2.25759963 L83.8695001,-8.86089963 L89.7897001,-8.86089963 L89.7897001,-10.4547996 L82.1491001,-10.4547996 L82.1491001,7.66000038 L90.3969001,7.66000038 Z M97.2785001,8.06480038 C98.8724001,8.06480038 100.3398,7.05280038 101.0482,5.05410038 L101.1241,5.05410038 L101.3518,7.66000038 L102.3891,7.66000038 L102.3891,-1.54919962 L97.9616001,-1.54919962 L97.9616001,0.044700379 L100.7446,0.044700379 L100.7446,1.81570038 C100.7446,4.64930038 99.2772001,6.49620038 97.4556001,6.49620038 C95.5328001,6.49620038 93.7112001,4.77580038 93.7112001,-0.638399622 L93.7112001,-2.20699963 C93.7112001,-7.87419963 95.7099001,-9.29099963 97.4303001,-9.29099963 C99.1507001,-9.29099963 100.2386,-7.77299963 100.5928,-5.09119963 L102.3891,-5.52129963 C101.8831,-8.60789963 100.4157,-10.8595997 97.5062001,-10.8595997 C94.3690001,-10.8595997 91.9402001,-8.20309963 91.9402001,-2.30819963 L91.9402001,-0.537199622 C91.9402001,5.33240038 93.9642001,8.06480038 97.2785001,8.06480038 Z M105.6275,7.66000038 L106.6142,3.28310038 L111.4971,3.28310038 L112.4838,7.66000038 L114.3813,7.66000038 L110.0803,-10.6065997 L108.4105,-10.6065997 L104.0083,7.66000038 L105.6275,7.66000038 Z M111.1682,1.71450038 L106.9684,1.71450038 L108.5117,-5.06589963 L109.043,-7.62119963 L109.1442,-7.62119963 L109.6502,-5.06589963 L111.1682,1.71450038 Z M120.428,8.06480038 C123.5399,8.06480038 125.1844,5.78780038 125.1844,3.13130038 C125.1844,0.145900379 123.6158,-0.815499622 120.7569,-2.63709963 C118.3787,-4.15509963 117.6197,-4.86349963 117.6197,-6.68509963 C117.6197,-8.07659963 118.5558,-9.34159963 120.3268,-9.34159963 C122.4773,-9.34159963 123.1604,-7.79829963 123.5399,-5.29359963 L125.1844,-5.67309963 C124.7543,-8.98739963 123.4893,-10.8595997 120.3521,-10.8595997 C117.6703,-10.8595997 115.9246,-8.88619963 115.9246,-6.58389963 C115.9246,-3.80089963 117.4932,-2.53589963 120.1244,-0.916699622 C122.6544,0.626600383 123.4387,1.38560038 123.4387,3.30840038 C123.4387,5.13000038 122.3761,6.54680038 120.5292,6.54680038 C118.7582,6.54680038 117.1643,5.25650038 116.8607,1.73980038 L115.1909,2.16990038 C115.5704,5.91430038 117.3667,8.06480038 120.428,8.06480038 Z M131.7371,8.06480038 C134.7478,8.06480038 136.2658,6.31910038 136.2658,3.25780038 L136.2658,-10.4547996 L134.6719,-10.4547996 L134.6719,3.08070038 C134.6719,5.25650038 133.9382,6.52150038 131.7877,6.52150038 C129.6878,6.52150038 128.9288,5.20590038 128.9288,2.90360038 L128.9288,-10.4547996 L127.2084,-10.4547996 L127.2084,3.05540038 C127.2084,6.21790038 128.8023,8.06480038 131.7371,8.06480038 Z M143.198,8.06480038 C146.3099,8.06480038 147.9544,5.78780038 147.9544,3.13130038 C147.9544,0.145900379 146.3858,-0.815499622 143.5269,-2.63709963 C141.1487,-4.15509963 140.3897,-4.86349963 140.3897,-6.68509963 C140.3897,-8.07659963 141.3258,-9.34159963 143.0968,-9.34159963 C145.2473,-9.34159963 145.9304,-7.79829963 146.3099,-5.29359963 L147.9544,-5.67309963 C147.5243,-8.98739963 146.2593,-10.8595997 143.1221,-10.8595997 C140.4403,-10.8595997 138.6946,-8.88619963 138.6946,-6.58389963 C138.6946,-3.80089963 140.2632,-2.53589963 142.8944,-0.916699622 C145.4244,0.626600383 146.2087,1.38560038 146.2087,3.30840038 C146.2087,5.13000038 145.1461,6.54680038 143.2992,6.54680038 C141.5282,6.54680038 139.9343,5.25650038 139.6307,1.73980038 L137.9609,2.16990038 C138.3404,5.91430038 140.1367,8.06480038 143.198,8.06480038 Z" id="PROJETPEGASUS" fill="#09F875" fill-rule="nonzero" mask="url(#mask-4)"></path>
            </g>
        </g>
    </g>
</svg>